<svg width="40" height="40" viewBox="0 0 40 40" fill="none" xmlns="http://www.w3.org/2000/svg">
<path d="M30 33.3333C30 30.6811 28.9464 28.1375 27.0711 26.2622C25.1957 24.3868 22.6522 23.3333 20 23.3333C17.3478 23.3333 14.8043 24.3868 12.9289 26.2622C11.0536 28.1375 10 30.6811 10 33.3333" stroke="#4E525B" stroke-width="2" stroke-linecap="round" stroke-linejoin="round"/>
<path d="M19.9999 23.3333C23.6818 23.3333 26.6666 20.3486 26.6666 16.6667C26.6666 12.9848 23.6818 10 19.9999 10C16.318 10 13.3333 12.9848 13.3333 16.6667C13.3333 20.3486 16.318 23.3333 19.9999 23.3333Z" stroke="#4E525B" stroke-width="2" stroke-linecap="round" stroke-linejoin="round"/>
<path d="M19.9999 36.6666C29.2047 36.6666 36.6666 29.2047 36.6666 19.9999C36.6666 10.7952 29.2047 3.33325 19.9999 3.33325C10.7952 3.33325 3.33325 10.7952 3.33325 19.9999C3.33325 29.2047 10.7952 36.6666 19.9999 36.6666Z" stroke="#4E525B" stroke-width="2" stroke-linecap="round" stroke-linejoin="round"/>
</svg>
